<svg xmlns="http://www.w3.org/2000/svg" viewBox="0 0 1440 720" fill="none">
  <rect width="1440" height="720" fill="#0B1120" />
  <g opacity="0.65" fill="#0EA5E9">
    <path d="M221 226c27-33 78-57 122-68 44-11 90-9 131-24 41-14 77-45 120-54 43-9 92 5 124 33 32 27 47 67 85 92 37 25 96 34 117 66s6 78-18 109-63 45-97 68c-34 24-62 54-102 65-40 10-93 1-136-13-43-14-77-33-122-45-45-11-101-14-137-39-36-24-54-71-68-112-14-41-24-77-19-118 5-42 24-89 50-122z" />
    <path d="M925 146c30-18 73-18 110-11 37 8 69 23 99 38 30 16 58 33 84 59s50 60 52 99c2 40-13 84-40 111-26 28-65 39-101 46-37 7-71 9-103 0-33-9-64-30-81-58-17-29-21-65-36-98-14-32-38-60-44-93-6-33 6-72 30-93 24-20 60-22 90-0.4z" />
    <path d="M827 459c34-6 70-9 99 6 28 15 48 50 59 85 12 35 15 69 4 98-11 30-36 55-65 65s-63 5-93-5c-30-9-56-23-80-42-24-20-47-44-54-72-7-28 1-61 19-85 18-23 45-37 67-46 23-9 41-13 74-4z" />
    <path d="M399 474c20-24 59-34 95-32 35 2 67 17 90 38 24 21 39 48 47 77 8 29 9 60-4 82-13 23-40 37-70 47s-63 17-94 10-60-25-74-51c-14-27-13-63-20-97s-23-66-15-89c8-23 45-39 67-49z" />
  </g>
  <g opacity="0.12" stroke="#38BDF8" stroke-width="2">
    <circle cx="720" cy="360" r="320" />
    <circle cx="720" cy="360" r="260" />
    <circle cx="720" cy="360" r="200" />
    <circle cx="720" cy="360" r="140" />
  </g>
</svg>
